<svg width="60" height="60" viewBox="0 0 60 60" fill="none" xmlns="http://www.w3.org/2000/svg">
<g clip-path="url(#clip0_6_36)">
<path d="M0 56.7194C0 52.4219 0 48.1256 0 43.8282C0.109159 43.3785 0.208928 42.9264 0.328651 42.4791C1.54114 37.9785 5.40045 35.0466 10.1706 34.9984C10.7504 34.9926 11.3314 34.9984 11.9758 34.9984C11.9758 34.4665 11.9453 34.0004 11.9852 33.5401C12.0204 33.1209 11.8444 32.9378 11.4805 32.7593C7.53081 30.8149 5.1164 27.6728 4.23491 23.3601C4.17153 23.0501 4.06589 22.9127 3.74545 22.8235C1.86744 22.2951 0.66904 21.0693 0.136156 19.1918C0.0939004 19.0438 0.0457764 18.8982 0 18.7503C0 18.2031 0 17.656 0 17.11C0.048124 16.9902 0.106812 16.874 0.143198 16.7507C0.586877 15.2254 1.50006 14.0971 2.95669 13.4372C3.28651 13.2881 3.63512 13.1812 3.99077 13.0497C3.99077 12.3288 3.98607 11.6278 3.99077 10.928C4.02715 6.04932 7.26202 1.78239 11.9559 0.437965C12.5709 0.26184 13.2012 0.144423 13.8233 0C15.9314 0 18.0406 0 20.1487 0C20.2778 0.0375734 20.4046 0.0915851 20.5372 0.111546C23.5831 0.569472 26.021 2.04892 27.8509 4.5135C28.115 4.8681 28.3661 5.009 28.8075 5.00665C32.4379 4.98904 36.0683 4.99374 39.6987 4.99843C41.2105 5.00078 41.9711 5.75695 41.9934 7.25519C41.9969 7.48298 41.9934 7.71076 41.9934 7.98317C42.3045 7.98317 42.5369 7.98317 42.7693 7.98317C46.5758 7.98317 50.3823 7.98082 54.1887 7.98317C55.886 7.98434 56.9846 8.84971 57.3943 10.4888C58.0081 12.9452 58.6396 15.398 59.2324 17.8603C59.5188 19.0497 59.9049 20.2509 59.9437 21.4568C60.0446 24.5777 59.9801 27.7045 59.9765 30.8278C59.9742 32.7346 58.7417 33.9734 56.8356 33.9922C56.217 33.998 55.5984 33.9922 54.9036 33.9922C55.1101 35.4505 54.859 36.7538 54.0209 37.9292C54.1571 37.9597 54.1946 37.9761 54.2322 37.9761C55.6571 37.9785 57.0821 37.9797 58.507 37.982C59.5023 37.982 59.9789 38.3131 59.9754 39.0024C59.9718 39.6975 59.5258 40.0004 58.4953 40.0004C52.4833 40.0004 46.4713 40.0004 40.4593 40.0004C40.2645 40.0004 40.0673 40.0027 39.8748 39.9769C39.349 39.9076 39.0191 39.5507 39.0015 39.0458C38.9816 38.4951 39.2727 38.164 39.7774 38.0207C39.9605 37.9691 40.1647 37.9843 40.3584 37.9843C42.0369 37.982 43.7153 37.9843 45.395 37.982C45.5581 37.982 45.7201 37.962 45.9537 37.9456C45.1039 36.7268 44.8398 35.4411 45.0534 34.0438H22.0502V34.9973C22.6723 34.9973 23.2544 34.9973 23.8366 34.9973C26.4212 34.9914 28.7007 35.8274 30.6291 37.5452C30.9977 37.874 31.3451 38.0008 31.8205 37.9914C33.1668 37.9679 34.5143 37.975 35.8606 37.9867C36.5355 37.9926 36.9956 38.4188 36.9979 38.9941C37.0003 39.5753 36.5589 39.9746 35.8653 39.998C35.4368 40.0121 35.0061 40.0016 34.5765 40.0016C33.9638 40.0016 33.3511 40.0016 32.6597 40.0016C33.4262 41.4352 33.9415 42.8337 33.9567 44.3366C33.9966 48.2607 33.999 52.1859 33.9708 56.11C33.9556 58.2857 32.2008 59.9894 30.0247 59.9918C21.3389 60.0012 12.6519 59.9988 3.96612 59.9918C2.23718 59.9906 0.761767 58.8975 0.204233 57.2536C0.143198 57.0728 0.0704253 56.8955 0.00234751 56.7159L0 56.7194ZM22.0079 37.0685C22.0079 38.38 22.0196 39.6481 22.0044 40.9162C21.9903 42.0904 21.1769 42.9816 20.0642 42.9945C18.0148 43.018 15.9654 43.0145 13.916 42.9945C13.0134 42.9863 12.2669 42.3616 12.0662 41.4845C11.9934 41.1652 11.9829 40.8282 11.9793 40.4982C11.97 39.3534 11.9758 38.2098 11.9758 37.0697H9.04143V57.9722H24.9399V37.0673H22.0067L22.0079 37.0685ZM27.9987 16.4771C27.7886 16.6521 27.6736 16.7448 27.5621 16.8411C26.3191 17.9178 24.9153 18.2466 23.3166 17.811C19.104 16.6614 14.8844 16.6603 10.6706 17.811C9.052 18.2524 7.62941 17.9272 6.38523 16.8047C6.29133 16.719 6.18569 16.6462 6.08592 16.5663L5.90751 16.6039C6.00024 18.7162 5.92864 20.8509 6.2209 22.935C6.85003 27.4145 10.7129 31.429 15.9466 31.9444C20.2977 32.373 24.8355 30.0834 26.9565 25.6568C28.3556 22.7366 27.9107 19.645 27.9987 16.4783V16.4771ZM29.9836 13.0708C30.0986 13.1049 30.1714 13.126 30.243 13.1483C32.5729 13.8599 33.9872 15.6998 33.9826 18.0106C33.9779 20.3119 32.5294 22.153 30.2113 22.8564C30.0282 22.9115 29.8404 23.1546 29.7699 23.3519C29.3603 24.5037 29.0023 25.6732 28.5903 26.8239C28.4506 27.2149 28.2053 27.5683 27.9917 27.9699H39.93V7.04501H29.2418C30.0739 9.01174 30.0176 11.0442 29.9847 13.0708H29.9836ZM42.0263 31.9961C43.2975 31.9961 44.5252 32.0055 45.7518 31.9843C45.9126 31.982 46.1074 31.8517 46.226 31.7237C48.381 29.4082 51.6335 29.4106 53.7462 31.7272C53.8624 31.8552 54.0585 31.9796 54.2204 31.9843C55.1371 32.0078 56.055 32.0114 56.9705 31.989C57.5375 31.975 57.9178 31.6016 57.9706 31.038C58.0011 30.7139 57.9765 30.3851 57.9765 29.9988C57.6419 29.9988 57.3532 30.0012 57.0656 29.9988C55.3214 29.9859 54.0162 28.7413 53.9904 27.0669C53.9634 25.3421 55.2299 24.0517 56.994 24.0082C57.3145 24 57.6361 24.0082 57.9835 24.0082C57.9835 23.1616 57.9541 22.4196 57.9929 21.6798C58.0211 21.1573 57.8779 20.9789 57.3191 20.9836C53.9833 21.0106 50.6452 20.946 47.3105 21.0164C45.3586 21.0575 43.9137 19.6673 43.9548 17.663C44.0017 15.3417 43.9653 13.018 43.9653 10.6955C43.9653 10.4865 43.9653 10.2787 43.9653 10.0474H42.0263V31.9984V31.9961ZM28.0375 12.2219C27.9858 11.3566 27.9682 10.5769 27.8896 9.80313C27.494 5.93659 24.0714 2.45519 20.205 2.11937C18.3446 1.95734 16.4537 1.91037 14.5921 2.03131C10.7798 2.27906 8.09421 4.23875 6.61294 7.77534C6.02606 9.1773 5.92042 10.6603 6.02841 12.1914C13.3644 9.182 20.6405 9.18787 28.0387 12.2207L28.0375 12.2219ZM27.0374 57.9746C27.1701 57.9875 27.2475 58.0016 27.3238 58.0016C28.183 58.0027 29.041 58.0157 29.8991 57.9992C31.1515 57.9757 31.979 57.1374 31.9813 55.8798C31.9883 52.2294 31.9942 48.5789 31.9778 44.9284C31.9707 43.3491 31.5153 41.8896 30.6338 40.5769C29.7465 39.2536 28.5809 38.2626 27.0363 37.6356V57.9746H27.0374ZM6.97093 57.9992V37.6274C6.71857 37.7389 6.5026 37.8153 6.30659 37.9245C3.65625 39.3898 2.13389 41.6454 2.03764 44.6583C1.91674 48.4403 1.98834 52.2282 2.00712 56.0137C2.01299 57.1186 2.82758 57.9429 3.92504 57.991C4.91686 58.0344 5.9122 58.0004 6.9721 58.0004L6.97093 57.9992ZM46.003 10.0027C46.003 10.2634 46.003 10.436 46.003 10.6086C46.003 12.9722 46.0006 15.3346 46.0042 17.6982C46.0053 18.6787 46.3211 18.991 47.2988 18.991C50.4809 18.9922 53.6629 18.991 56.8461 18.991C57.0269 18.991 57.2088 18.9687 57.4307 18.9546C56.7675 16.2986 56.1254 13.7096 55.4752 11.1229C55.2346 10.1659 55.0162 10.0051 53.9974 10.0051C51.752 10.0039 49.5066 10.0051 47.2624 10.0051C46.8751 10.0051 46.4877 10.0051 46.0042 10.0051L46.003 10.0027ZM6.67632 14.1205C7.80078 15.8114 9.13651 16.1977 11.0321 15.6646C14.4935 14.6924 18.0512 14.7851 21.5912 15.3417C22.1863 15.4356 22.7896 15.5378 23.3577 15.7292C25.17 16.3397 26.0421 15.7526 27.3227 14.1205C20.4151 11.2368 13.571 11.225 6.67632 14.1205ZM19.9585 33.6599C17.9573 34.1143 16.0124 34.0885 14.0628 33.6798V40.9667H19.9585V33.6599ZM39.9441 30.0481C39.8419 30.0223 39.8044 30.0047 39.768 30.0047C35.3993 30.0012 31.0306 29.9988 26.6618 30.0035C26.5186 30.0035 26.3438 30.047 26.2369 30.1362C25.5256 30.728 24.8284 31.3374 24.1042 31.9597H39.9429V30.0481H39.9441ZM52.961 34.9738C52.9528 33.3358 51.6018 31.9949 49.9691 32.0043C48.3235 32.0137 46.9561 33.4121 46.9842 35.0583C47.0112 36.6658 48.3517 37.982 49.9632 37.9832C51.6487 37.9843 52.9692 36.6587 52.961 34.9738ZM30.0176 15.2583V20.7182C31.101 20.4423 31.9461 19.2975 31.9825 18.0916C32.0212 16.8247 31.216 15.6458 30.0176 15.2583ZM3.96377 15.2571C2.76302 15.6611 1.94491 16.8646 1.9989 18.0975C2.05172 19.3162 2.90739 20.4658 3.96377 20.71V15.2571ZM57.9518 26.0067C57.3039 26.0654 56.5773 25.7695 56.1865 26.4681C56.0315 26.7452 56.0304 27.2618 56.1888 27.5331C56.5832 28.2059 57.2945 27.9863 57.9518 27.9804V26.0067Z" fill="#13236B"/>
<path d="M16.9573 29.0242C15.0629 29.043 13.5006 28.3597 12.3503 26.8227C11.8855 26.2015 11.9195 25.5945 12.4207 25.2258C12.9032 24.8712 13.51 24.9734 13.9208 25.5945C15.1732 27.4931 18.8482 27.4884 20.0877 25.5734C20.5044 24.9299 21.0725 24.8348 21.5807 25.1964C22.0983 25.5651 22.13 26.1381 21.6688 26.7886C20.6089 28.2822 19.0642 29.0137 16.9585 29.0231L16.9573 29.0242Z" fill="#13236B"/>
<path d="M47.9326 24.9898C47.6016 24.9898 47.2694 25.0109 46.9408 24.9851C46.368 24.9393 45.9877 24.5331 45.9841 24.0023C45.9818 23.4974 46.3374 23.0407 46.8692 23.0078C47.6063 22.962 48.3493 22.9632 49.0864 23.0066C49.6075 23.0372 49.9878 23.5021 49.9925 23.9894C49.9972 24.506 49.604 24.937 49.0406 24.9816C48.6732 25.0109 48.3011 24.9875 47.9314 24.9875C47.9314 24.9875 47.9314 24.9886 47.9314 24.9898H47.9326Z" fill="#13236B"/>
<path d="M54.9528 15.7667C54.9552 16.7918 54.1477 17.2438 53.407 16.8211C52.3753 16.2317 51.3659 15.6059 50.347 14.9941C49.7461 14.6336 49.1381 14.2814 48.5453 13.908C47.962 13.5393 47.8059 12.9745 48.1216 12.465C48.4197 11.9812 48.9913 11.845 49.5501 12.1749C51.1769 13.1354 52.8014 14.1006 54.4035 15.101C54.6817 15.2747 54.846 15.6317 54.954 15.7679L54.9528 15.7667Z" fill="#13236B"/>
</g>
<defs>
<clipPath id="clip0_6_36">
<rect width="60" height="60" fill="white"/>
</clipPath>
</defs>
</svg>
