<svg width="60" height="62" viewBox="0 0 60 62" fill="none" xmlns="http://www.w3.org/2000/svg">
<g clip-path="url(#clip0_6_51)">
<path d="M28.3617 61.0206C27.1454 60.8645 25.9198 60.7588 24.7141 60.5439C19.2068 59.5625 14.3605 57.1898 10.1493 53.5128C9.65037 53.0773 9.56937 52.5267 9.91922 52.131C10.2667 51.7389 10.8056 51.7412 11.3222 52.1921C13.6784 54.2524 16.2929 55.8937 19.1821 57.0959C19.6142 57.2755 20.0533 57.4352 20.4912 57.5995C20.5416 57.6183 20.605 57.6019 20.787 57.6019C20.8856 55.9054 21.0653 54.2008 21.057 52.4985C21.0512 51.2188 20.2446 50.282 19.215 49.5928C18.358 49.0199 17.4716 48.4799 16.5571 48.0032C14.5812 46.9736 13.3661 45.3981 13.0609 43.1909C12.8343 41.5462 13.048 39.9213 13.5446 38.3376C13.6784 37.9126 13.8193 37.49 13.9731 37.0204C13.2957 36.6881 12.6382 36.357 11.9737 36.0412C9.44492 34.8367 7.02295 33.4631 4.95435 31.546C3.69229 30.3767 2.67677 29.0312 2.20717 27.336C2.19425 27.289 2.13673 27.255 1.97706 27.0812C1.90427 28.6063 1.76574 29.9951 1.78687 31.3816C1.84557 35.2476 2.64742 38.9633 4.22646 42.5018C5.21732 44.7219 6.46999 46.7834 7.99268 48.6794C8.13943 48.8614 8.2897 49.0434 8.41414 49.2406C8.68651 49.6726 8.68417 50.0953 8.285 50.451C7.91754 50.7786 7.39511 50.7375 7.04056 50.3101C6.4923 49.6503 5.9546 48.9765 5.46504 48.272C2.86579 44.5328 1.16113 40.4179 0.412111 35.9262C-2.16131 20.488 7.54538 5.58749 22.7723 1.91284C32.4367 -0.419908 41.2547 1.644 49.0653 7.84863C49.1111 7.88502 49.1569 7.92259 49.2003 7.96133C49.6993 8.40158 49.7897 8.86532 49.4586 9.28561C49.1287 9.70473 48.6415 9.73174 48.1097 9.35018C47.0155 8.56712 45.9577 7.72653 44.8225 7.00804C43.7482 6.32711 42.5954 5.77063 41.4765 5.15898C41.4519 5.20007 41.4284 5.23998 41.4038 5.28107C41.9825 6.17332 42.5719 7.06087 43.1389 7.96016C43.6778 8.81483 43.9678 9.70943 43.9596 10.7684C43.9537 11.4622 44.3129 12.1913 44.6334 12.844C44.9058 13.3982 44.8999 13.8232 44.6194 14.3714C44.0089 15.5654 43.4125 16.7758 42.9429 18.0284C42.3747 19.5453 42.357 21.1126 42.8807 22.674C43.6708 25.0314 44.8013 27.1869 46.4813 29.0406C46.8829 29.4844 47.2902 29.5772 47.8162 29.2707C48.5746 28.8293 49.3424 28.4031 50.1208 27.9993C50.9555 27.5661 51.8207 27.1258 52.7905 27.3231C54.076 27.5837 54.6454 28.6192 55.0434 29.7251C55.6961 31.5401 55.7208 33.4349 55.6081 35.3345C55.4026 38.7931 54.7452 42.1778 53.9422 45.539C53.9198 45.6317 53.9151 45.728 54.029 45.8818C54.5268 44.9531 55.068 44.0445 55.5153 43.0912C57.4196 39.0338 58.3658 34.7557 58.2191 30.2733C57.9995 23.6062 55.7278 17.7079 51.4051 12.6116C51.2408 12.419 51.0658 12.2288 50.9402 12.0105C50.7066 11.6043 50.7641 11.1981 51.1269 10.9057C51.4814 10.6205 51.9017 10.6052 52.2516 10.9222C52.5392 11.1828 52.7858 11.4904 53.0335 11.7909C56.5661 16.069 58.799 20.9353 59.6443 26.4273C59.777 27.2902 59.8815 28.1566 59.9989 29.0219V33.0064C59.9613 33.1755 59.9132 33.3422 59.8873 33.5124C59.6854 34.8602 59.5621 36.2232 59.2757 37.5534C56.6987 49.5294 46.6527 58.9003 34.5252 60.6743C33.6823 60.7975 32.8358 60.9032 31.9917 61.0171H28.3594L28.3617 61.0206ZM24.9665 10.2706C25.1708 11.7135 24.8737 12.459 23.6809 13.161C22.15 14.0626 21.0065 15.3012 20.2094 16.8674C19.8196 17.634 19.2209 18.1036 18.412 18.336C18.2253 18.39 18.0398 18.4534 17.8508 18.4992C17.1722 18.6659 16.7907 19.0886 16.6545 19.7777C16.5148 20.4845 16.3939 21.2065 16.145 21.8768C15.8855 22.5766 15.5991 23.3232 15.1213 23.8727C14.2537 24.8706 12.8495 24.5771 12.3142 23.3737C12.1569 23.0215 12.0759 22.6353 11.9514 22.2666C11.834 21.9168 11.7542 21.5434 11.5734 21.2288C11.105 20.4117 10.3066 20.3776 9.73725 21.1173C8.69239 22.4732 8.67243 22.9734 9.60694 24.4092C9.67033 24.5078 9.73138 24.6076 9.7983 24.7039C10.5861 25.8403 10.9453 27.0977 10.7657 28.4701C10.6941 29.0183 10.9042 29.3517 11.294 29.6652C12.7897 30.8697 14.492 31.6587 16.3164 32.2187C17.4317 32.5615 18.4777 32.6155 19.5977 32.0907C20.7835 31.5331 22.0819 31.5119 23.3804 31.8113C25.3069 32.2551 26.8648 33.3457 28.3241 34.596C29.5686 35.6632 30.7567 36.7961 31.98 37.8868C32.7208 38.5477 33.5426 38.9845 34.5804 39.0796C37.0987 39.3109 39.2952 40.3698 41.2687 41.9125C42.7374 43.0606 43.1648 44.4295 42.4627 46.0403C42.1399 46.7799 41.7313 47.5453 41.169 48.1053C39.8447 49.4249 38.3807 50.6025 37.0212 51.8868C36.2052 52.657 35.1968 53.3989 34.7741 54.371C34.0251 56.0921 32.8206 57.3013 31.4165 58.4073C31.0913 58.6632 30.7508 58.8992 30.4174 59.1445L30.4843 59.3077C31.8368 59.1704 33.2021 59.1046 34.5405 58.8816C40.9165 57.8203 46.3099 54.9028 50.7242 50.181C50.8639 50.0307 50.9872 49.8358 51.0412 49.6398C52.3983 44.75 53.6017 39.8286 53.8564 34.7322C53.9339 33.1708 53.8835 31.6094 53.307 30.1172C52.8855 29.0242 52.4547 28.8328 51.3934 29.3529C50.5716 29.7556 49.7897 30.2381 48.9738 30.6572C47.1036 31.6164 46.2184 31.4403 44.8178 29.8613C44.7661 29.8026 44.7168 29.7427 44.6675 29.6816C43.1812 27.8643 42.0694 25.8297 41.3451 23.6085C41.0175 22.6036 40.7956 21.5235 40.7663 20.4716C40.7029 18.1811 41.6198 16.1383 42.6834 14.1683C42.8959 13.7738 42.8959 13.478 42.7409 13.046C42.4557 12.25 42.3195 11.4 42.1305 10.57C42.0377 10.1649 42.0753 9.6836 41.864 9.36075C40.8179 7.7641 39.6956 6.21676 38.6307 4.63302C38.2926 4.12937 37.8618 3.86874 37.283 3.72551C35.2766 3.23008 33.2526 2.88023 31.1441 2.82622C31.1441 2.95771 31.1371 3.05046 31.1441 3.1432C31.2944 4.99931 30.7626 6.67932 29.8867 8.2924C29.3643 9.25391 28.5883 9.76343 27.5329 9.91018C26.6876 10.0276 25.8435 10.1462 24.9665 10.2683V10.2706ZM16.3152 6.45508C16.3669 6.39051 16.4185 6.32594 16.469 6.26137C16.3857 6.30246 16.3 6.34003 16.2189 6.38581C11.9514 8.80075 8.53624 12.1056 5.93582 16.2569C4.69137 18.2445 3.71929 20.3412 3.56315 22.7245C3.42579 24.8166 3.54789 26.8675 4.79351 28.6779C5.77615 30.1055 7.08165 31.2114 8.54563 32.0731C10.5931 33.2776 12.7169 34.3507 14.8242 35.4495C16.0288 36.0776 16.1696 36.3629 15.6789 37.6003C15.0614 39.1571 14.6657 40.7584 14.769 42.4466C14.8677 44.0703 15.5415 45.3723 16.995 46.1976C17.6735 46.5827 18.3627 46.9478 19.0389 47.3364C21.509 48.7593 23.162 50.6682 22.8544 53.75C22.7241 55.0508 22.6279 56.3539 22.4975 57.6547C22.4564 58.0633 22.5269 58.291 23.0035 58.3662C24.3302 58.5763 25.6462 58.8522 26.9705 59.0776C27.1572 59.1093 27.4084 59.0577 27.561 58.9496C28.7714 58.0938 29.983 57.2368 31.1582 56.334C31.9213 55.7481 32.5905 55.0531 32.9086 54.1104C33.2303 53.1559 33.8044 52.3764 34.5464 51.7248C35.7486 50.667 37.0224 49.6879 38.1788 48.5855C39.0604 47.7449 39.9022 46.8292 40.589 45.8289C41.2852 44.8146 41.1513 44.1231 40.3354 43.4469C38.6366 42.0381 36.7218 41.0472 34.4935 40.8558C33.1693 40.742 32.0364 40.2864 31.0572 39.4118C30.0675 38.5278 29.1119 37.6015 28.0882 36.7574C27.0222 35.8792 25.9444 34.9975 24.781 34.2591C23.182 33.2448 21.4679 33.1414 19.6928 33.9139C19.1399 34.1546 18.4754 34.326 17.8872 34.2685C14.742 33.9609 12.0078 32.6754 9.6809 30.5481C9.07981 29.9986 8.87788 29.2977 8.9718 28.4266C9.04576 27.7445 8.88023 26.9932 8.6466 26.3357C8.42941 25.7252 7.98328 25.1958 7.6346 24.6322C7.02177 23.6437 6.93724 22.6153 7.44794 21.5669C7.68626 21.0773 7.94572 20.5901 8.26152 20.1487C8.78631 19.4173 9.43084 18.8373 10.4158 18.8197C11.6779 18.7974 12.7932 19.4936 13.271 20.6747C13.5152 21.2793 13.6866 21.9144 13.9449 22.701C14.1351 22.2232 14.3077 21.8839 14.4063 21.5246C14.6235 20.7357 14.8101 19.9386 14.998 19.1414C15.2281 18.167 15.7552 17.4391 16.7038 17.0611C17.083 16.9096 17.4916 16.8192 17.8473 16.6267C18.1514 16.4623 18.4953 16.2463 18.6562 15.9598C19.6388 14.2035 20.8891 12.7137 22.6689 11.7217C23.1327 11.4634 23.3123 11.1417 23.2243 10.5794C23.0481 9.4488 23.5271 8.79957 24.6366 8.5366C24.9571 8.46029 25.2893 8.42389 25.6181 8.38867C28.1093 8.11865 28.5155 7.81341 29.1377 5.59688C29.3948 4.68115 29.5698 3.74547 29.2058 2.69943C27.662 2.90253 26.1393 3.12677 24.6119 3.2923C23.9991 3.35805 23.6739 3.67386 23.3487 4.16342C22.5539 5.36325 21.7603 6.57835 20.8234 7.66431C19.9605 8.66456 19.026 8.64578 17.9788 7.83102C17.4106 7.38842 16.867 6.91412 16.3117 6.45273L16.3152 6.45508ZM21.2472 4.31604C21.2108 4.26908 21.1756 4.22212 21.1392 4.17633C20.1425 4.56845 19.1457 4.96057 18.021 5.40199C18.4672 5.91269 18.8405 6.33885 19.3183 6.88477C20.0744 5.87864 20.6602 5.09793 21.2472 4.31721V4.31604Z" fill="#13236B"/>
</g>
<defs>
<clipPath id="clip0_6_51">
<rect width="60" height="60.0411" fill="white" transform="translate(0 0.979492)"/>
</clipPath>
</defs>
</svg>
