<svg width="74" height="54" viewBox="0 0 74 54" fill="none" xmlns="http://www.w3.org/2000/svg">
<g clip-path="url(#clip0_3_23)">
<path d="M74.0003 3.81278V44.1641C73.9435 44.2668 73.8718 44.3649 73.8344 44.4736C73.1572 46.4094 71.6937 47.4648 69.6606 47.4739C69.094 47.4769 68.5259 47.4739 67.9818 47.4739C66.9533 51.1762 64.4538 53.3807 61.2621 53.4955C59.6416 53.5544 58.1572 53.1572 56.8267 52.2347C55.1748 51.0902 54.1956 49.4836 53.795 47.5131H21.421C20.4239 51.1626 17.9065 53.3822 14.7118 53.4955C13.0913 53.5528 11.6084 53.1557 10.2764 52.2332C8.62453 51.0886 7.64835 49.4806 7.23724 47.4739C6.25658 47.4739 5.31478 47.4769 4.37298 47.4739C1.78228 47.4648 0.00931003 45.6922 0.00632019 43.0936C0.000340512 38.6529 -0.00563917 34.2137 0.0212694 29.773C0.0242592 29.323 0.160297 28.8247 0.381545 28.4337C3.40427 23.0508 6.46138 17.686 9.4871 12.3031C9.87727 11.6085 10.3691 11.3247 11.1629 11.3307C14.7178 11.3609 18.2712 11.3443 21.8262 11.3443C22.0908 11.3443 22.3569 11.3443 22.6842 11.3443C22.6842 9.05827 22.6738 6.8568 22.6872 4.65532C22.6977 2.93702 23.7247 1.44974 25.3063 0.800476C25.5261 0.70686 25.7414 0.599655 25.9596 0.5C40.8789 0.5 55.7982 0.5 70.7175 0.5C71.0688 0.660052 71.4261 0.808025 71.7714 0.981667C72.9449 1.57658 73.5414 2.64108 74.0003 3.81127V3.81278ZM71.6159 34.194V33.3409C71.6159 24.0096 71.6159 14.6782 71.6159 5.34687C71.6159 3.51835 71.0135 2.90683 69.2106 2.90683C55.2914 2.90683 41.3722 2.90683 27.453 2.90683C25.6816 2.90683 25.0627 3.52288 25.0627 5.28345C25.0627 14.6405 25.0627 23.996 25.0627 33.353V34.1925H71.6159V34.194ZM67.9609 45.0701C68.4213 45.0701 68.8414 45.0701 69.2614 45.0701C70.9746 45.0686 71.6144 44.4329 71.6159 42.7297C71.6174 40.9993 71.6159 39.2689 71.6159 37.5385V36.6885H25.124V45.0293H53.7845C54.7383 41.2711 57.4321 39.0334 60.9407 39.0485C64.3536 39.0636 67.0624 41.3602 67.9609 45.0701ZM10.8714 14.9576C13.5129 14.9576 16.0961 14.9576 18.6794 14.9576C19.9201 14.9576 20.2879 15.3199 20.2879 16.552C20.2894 20.6923 20.2879 24.831 20.2879 28.9712C20.2879 30.2577 19.9336 30.611 18.6465 30.611C13.501 30.611 8.35544 30.611 3.20844 30.611C2.94533 30.611 2.68223 30.611 2.41613 30.611V31.8204C3.21143 31.8204 3.97533 31.8144 4.73923 31.8204C6.78428 31.8401 8.34946 33.4044 8.35096 35.4246C8.35096 37.4449 6.78727 39.0183 4.7482 39.0394C3.9843 39.047 3.2204 39.0394 2.40417 39.0394C2.40417 40.5599 2.35932 42.0094 2.42061 43.4544C2.45649 44.3045 3.12622 44.9734 3.97085 45.0278C5.05466 45.0972 6.14745 45.0444 7.21931 45.0444C8.19997 41.4251 10.7129 39.1829 13.8597 39.0485C15.5027 38.979 17.0155 39.361 18.3699 40.3062C20.0173 41.4553 20.9965 43.0619 21.4001 45.0323H22.6364V13.7466H21.7903C18.6823 13.7466 15.5744 13.7874 12.4695 13.7209C11.5561 13.7013 11.0971 14.0244 10.8699 14.9561L10.8714 14.9576ZM3.31906 28.1528H17.8482V17.3599C15.2082 17.3599 12.6264 17.375 10.0447 17.3463C9.54839 17.3402 9.30023 17.5093 9.06254 17.9336C7.27163 21.1407 5.45231 24.3312 3.64196 27.5277C3.53582 27.7165 3.44164 27.9128 3.31757 28.1513L3.31906 28.1528ZM19.0964 46.2433C19.0875 43.6356 16.9258 41.4613 14.3321 41.4523C11.716 41.4432 9.53344 43.6538 9.54839 46.2961C9.56334 48.9113 11.728 51.0901 14.3097 51.0901C16.9303 51.0901 19.1054 48.8872 19.0964 46.2433ZM65.6437 46.2705C65.6512 43.6643 63.5015 41.4779 60.9078 41.4523C58.2917 41.4266 56.0972 43.6236 56.0957 46.2689C56.0957 48.8826 58.2469 51.0735 60.8301 51.0901C63.4492 51.1068 65.6363 48.9174 65.6437 46.2705ZM2.39819 36.5692C3.30411 36.5692 4.20704 36.6386 5.09503 36.545C5.6616 36.4846 5.96806 35.9788 5.95161 35.396C5.93517 34.8116 5.59433 34.3435 5.03074 34.2877C4.16369 34.2031 3.28318 34.265 2.39819 34.265V36.5692Z" fill="#13236B"/>
<path d="M14.3078 49.8791C12.321 49.8746 10.7364 48.253 10.7469 46.2372C10.7588 44.2365 12.3689 42.6496 14.375 42.6617C16.3199 42.6738 17.9016 44.2909 17.8986 46.2659C17.8956 48.2816 16.302 49.8852 14.3078 49.8791ZM14.3422 47.4708C14.97 47.4557 15.5217 46.8789 15.5112 46.2493C15.5007 45.6196 14.9237 45.0579 14.3018 45.07C13.6769 45.0821 13.1208 45.6649 13.1343 46.2916C13.1477 46.9257 13.7218 47.4859 14.3437 47.4708H14.3422Z" fill="#13236B"/>
<path d="M64.4475 46.3128C64.428 48.318 62.812 49.9004 60.8089 49.8792C58.8341 49.8581 57.2674 48.2138 57.2958 46.1905C57.3227 44.2004 58.9552 42.6331 60.9703 42.6633C62.9062 42.692 64.4669 44.3302 64.4475 46.3143V46.3128ZM62.0586 46.2735C62.0631 45.6469 61.4965 45.0716 60.8731 45.0701C60.2512 45.0671 59.6832 45.6378 59.6817 46.2675C59.6802 46.8971 60.2438 47.4709 60.8657 47.4709C61.4905 47.4709 62.0541 46.9062 62.0586 46.2735Z" fill="#13236B"/>
</g>
<defs>
<clipPath id="clip0_3_23">
<rect width="74" height="53" fill="white" transform="translate(0 0.5)"/>
</clipPath>
</defs>
</svg>
