<svg width="60" height="60" viewBox="0 0 60 60" fill="none" xmlns="http://www.w3.org/2000/svg">
<path d="M48.067 0V4.23478C48.9984 4.05036 49.9041 3.83656 50.8203 3.69677C52.4789 3.44421 54.1374 3.44774 55.7314 4.05153C58.3414 5.03945 59.6288 7.10927 59.872 9.74176C60.4652 16.1544 59.0168 22.0549 54.9021 27.1202C51.9444 30.7618 48.2396 33.2991 43.5082 34.0368C42.2267 34.2365 40.9017 34.1578 39.5991 34.2436C39.3207 34.2624 39.0141 34.3893 38.7897 34.5584C37.8242 35.282 36.9162 36.0867 35.926 36.7715C35.0427 37.3824 34.3226 38.0625 34.0842 39.1926C34.2181 39.2654 34.3485 39.3359 34.4777 39.4076C35.5196 39.9855 36.1081 40.8583 36.0951 42.0612C36.0822 43.2606 35.5008 44.1545 34.4237 44.6702C34.0583 44.8452 33.9597 45.0414 33.9691 45.4173C33.9926 46.4475 33.9773 47.4801 33.9773 48.589H38.7956V52.5031H43.5059V60H16.5258V52.536H21.1973V48.6231H26.0427C26.0427 47.3814 26.0486 46.2173 26.0321 45.052C26.0309 44.9592 25.8959 44.8288 25.7925 44.7806C24.5944 44.2309 23.9154 43.3146 23.9319 41.9884C23.9483 40.6856 24.6437 39.7987 25.823 39.2772C25.8559 39.2631 25.8782 39.2267 25.9311 39.1773C25.7796 38.3456 25.3262 37.6913 24.6601 37.1698C23.4644 36.2347 22.2721 35.2949 21.0611 34.381C20.899 34.2589 20.6288 34.2283 20.4127 34.2401C18.027 34.3634 15.6942 34.1015 13.4495 33.258C10.0924 31.9976 7.35552 29.8737 5.10728 27.1155C2.05208 23.3659 0.478074 19.0277 0.110415 14.2268C0.0974941 14.0564 0.0375881 13.8884 0 13.7193C0 12.5857 0 11.4521 0 10.3185C0.082224 9.90152 0.166797 9.4845 0.245497 9.06631C0.782302 6.20827 2.62647 4.32641 5.45027 3.73671C7.14996 3.38195 8.82498 3.58752 10.4965 3.92466C10.9839 4.02216 11.4644 4.15138 11.9577 4.26767V0H48.067ZM13.8512 4.8327C13.9605 6.06261 14.0615 7.22909 14.1695 8.39439C14.5431 12.4013 15.1762 16.3647 16.1805 20.2647C17.1273 23.945 18.3665 27.5055 20.4679 30.7136C21.6484 32.5168 23.0556 34.0956 24.9374 35.1904C26.3363 36.0056 27.3066 37.131 27.7107 38.7251C27.7471 38.8696 27.9843 39.061 28.1312 39.0634C29.381 39.0904 30.6308 39.0904 31.8806 39.0634C32.0321 39.0599 32.2776 38.8801 32.3128 38.7403C32.7181 37.1228 33.7095 35.9915 35.1261 35.1669C36.7036 34.2483 37.9546 32.969 39.02 31.4983C41.1801 28.5158 42.4816 25.1397 43.4965 21.6414C44.5983 17.8495 45.2631 13.9671 45.713 10.0484C45.9103 8.32743 46.0325 6.5971 46.1923 4.8327H13.8512ZM17.0133 28.4453C16.2968 26.4025 15.5215 24.4231 14.9072 22.3956C13.7185 18.4674 13.0348 14.4312 12.5415 10.3608C12.5227 10.2034 12.3959 9.96965 12.2678 9.92737C10.6656 9.40345 9.03641 9.00053 7.33203 9.27071C6.05051 9.47393 5.36453 10.2657 5.25176 11.5743C5.11433 13.1778 5.49609 14.7154 5.87549 16.2461C6.70948 19.6163 8.16836 22.6693 10.6245 25.1749C12.3923 26.9781 14.4691 28.2045 17.0145 28.4441L17.0133 28.4453ZM43.0337 28.4476C45.8962 28.1528 48.1492 26.6715 50.0027 24.5253C53.0251 21.0259 54.3935 16.8487 54.8129 12.3226C54.9914 10.4008 54.0963 9.33062 52.1594 9.24252C51.0505 9.192 49.9146 9.41402 48.8117 9.62312C47.4832 9.87568 47.5161 9.92854 47.3598 11.2442C46.9323 14.8505 46.3003 18.4239 45.2561 21.9046C44.5971 24.1013 43.7854 26.2521 43.0337 28.4488V28.4476ZM41.7169 54.3215H18.3089V58.2227H41.7169V54.3215ZM12.2878 7.97032C12.2549 7.50631 12.1997 7.09987 12.2044 6.69342C12.2079 6.35981 12.067 6.20945 11.7627 6.11547C10.0149 5.57746 8.24119 5.25794 6.40055 5.40008C4.15936 5.57276 2.49139 6.94011 2.11785 9.13209C1.89702 10.4266 1.82655 11.7681 1.86531 13.0826C1.99569 17.651 3.32185 21.8458 6.13391 25.4862C8.60533 28.6849 11.6699 31.0989 15.6919 32.041C16.8888 32.3218 18.1304 32.4064 19.352 32.5814C19.3708 32.5215 19.3884 32.4616 19.4072 32.4017C19.1253 31.9647 18.7835 31.5524 18.5744 31.0825C18.2948 30.4528 17.8367 30.2943 17.2024 30.2555C14.8367 30.1098 12.7294 29.2676 10.8712 27.7957C7.51292 25.1362 5.49843 21.6191 4.36139 17.5511C3.82929 15.6505 3.37471 13.7287 3.42052 11.7376C3.47103 9.54441 4.62334 8.06077 6.75176 7.59442C7.648 7.39824 8.61355 7.41351 9.53798 7.4793C10.4424 7.54273 11.3352 7.79177 12.289 7.97032H12.2878ZM47.7369 8.01026C48.047 7.93743 48.2913 7.88222 48.5345 7.82113C49.964 7.46285 51.4064 7.24436 52.8806 7.48282C54.8305 7.79764 56.0873 8.89011 56.4538 10.698C56.5995 11.4134 56.6417 12.1816 56.5619 12.9064C56.1085 16.9955 54.9562 20.8509 52.5329 24.2434C50.9753 26.4248 49.0713 28.2092 46.6081 29.3357C45.2584 29.9524 43.8242 30.2003 42.3583 30.3213C42.1656 30.3377 41.9037 30.4059 41.8074 30.5433C41.3868 31.1447 41.0168 31.7814 40.5975 32.4545C40.7173 32.4686 40.7878 32.4851 40.8571 32.4839C43.7091 32.4357 46.3778 31.7333 48.7847 30.1756C53.7016 26.991 56.6406 22.4567 57.7553 16.7418C58.2463 14.2268 58.5024 11.6753 57.9268 9.12975C57.511 7.289 56.4562 6.0215 54.5415 5.58333C52.3262 5.07704 50.2036 5.51168 48.1057 6.19418C47.9941 6.23059 47.8673 6.39857 47.852 6.51839C47.7933 6.98005 47.7768 7.4464 47.7369 8.01026ZM13.7807 1.80081C13.6868 2.59334 13.998 2.9896 14.7146 2.9896C24.9327 2.9896 35.1507 2.9896 45.3688 2.9896C46.0031 2.9896 46.3136 2.66813 46.3003 2.02518C46.2991 1.9547 46.2663 1.88421 46.2451 1.80081H13.7807ZM23.0767 52.4819H36.9374V50.4474H23.0767V52.4819ZM30.0717 40.9018C29.0767 40.9018 28.0818 40.8959 27.0869 40.903C26.2459 40.9088 25.7349 41.3364 25.7255 42.0213C25.7161 42.7085 26.2318 43.1654 27.0587 43.1689C29.0286 43.176 30.9984 43.176 32.9695 43.1689C33.7952 43.1654 34.3109 42.7085 34.3003 42.0213C34.2897 41.3352 33.78 40.9088 32.9389 40.903C31.9828 40.8959 31.0278 40.9018 30.0717 40.9018ZM27.9256 45.0179V48.5514H32.112V45.0179H27.9256Z" fill="#13236B"/>
</svg>
