<svg width="40" height="40" viewBox="0 0 40 40" fill="none" xmlns="http://www.w3.org/2000/svg">
<path d="M27.3765 29.4141L10.5849 12.5981C10.2025 12.2151 10.2285 11.5537 10.6424 11.1393C11.0562 10.7248 11.7166 10.6987 12.0991 11.0818L28.8906 27.8978C29.2731 28.2808 29.2471 28.9422 28.8332 29.3566C28.4193 29.7711 27.759 29.7972 27.3765 29.4141Z" fill="#1A2027"/>
<path d="M29.416 12.217L12.6244 29.0331C12.2419 29.4161 11.5816 29.39 11.1677 28.9756C10.7538 28.5611 10.7278 27.8998 11.1103 27.5167L27.9019 10.7007C28.2843 10.3176 28.9447 10.3437 29.3586 10.7582C29.7724 11.1726 29.7985 11.834 29.416 12.217Z" fill="#1A2027"/>
</svg>
