<svg width="64" height="69" viewBox="0 0 64 69" fill="none" xmlns="http://www.w3.org/2000/svg">
<g clip-path="url(#clip0_1_2362)">
<path opacity="0.55" d="M35.397 66.9204C52.3965 66.1592 65.5202 50.8254 64.7098 32.6714C63.8993 14.5174 49.4616 0.417772 32.4621 1.17896C15.4627 1.94014 2.33889 17.2739 3.14935 35.4279C3.9598 53.5819 18.3976 67.6815 35.397 66.9204Z" stroke="url(#paint0_linear_1_2362)" stroke-width="1.29949" stroke-miterlimit="20.48"/>
<path opacity="0.55" d="M58.0828 15.1061C58.5296 11.3085 48.9969 7.0624 36.7909 5.62205C24.5849 4.18171 14.3278 6.09259 13.881 9.89014C13.4342 13.6877 22.9669 17.9338 35.1729 19.3742C47.3789 20.8145 57.6361 18.9036 58.0828 15.1061Z" stroke="url(#paint1_linear_1_2362)" stroke-width="1.29949" stroke-miterlimit="20.48"/>
<path opacity="0.55" d="M54.3478 57.7004C54.8016 53.8439 45.1199 49.5318 32.7232 48.069C20.3266 46.6061 9.90927 48.5465 9.45556 52.403C9.00184 56.2594 18.6835 60.5715 31.0802 62.0344C43.4768 63.4972 53.8941 61.5568 54.3478 57.7004Z" stroke="url(#paint2_linear_1_2362)" stroke-width="1.29949" stroke-miterlimit="20.48"/>
<path opacity="0.55" d="M63.0021 44.34C63.6046 39.2183 50.7819 33.4956 34.3617 31.5579C17.9415 29.6203 4.14187 32.2015 3.5393 37.3232C2.93672 42.4449 15.7594 48.1676 32.1796 50.1052C48.5998 52.0428 62.3995 49.4617 63.0021 44.34Z" stroke="url(#paint3_linear_1_2362)" stroke-width="1.29949" stroke-miterlimit="20.48"/>
<path opacity="0.55" d="M64.336 30.1125C64.9379 24.9961 52.1306 19.2796 35.73 17.3443C19.3294 15.409 5.5461 17.9877 4.94416 23.1041C4.34222 28.2204 17.1496 33.9369 33.5501 35.8722C49.9507 37.8075 63.734 35.2288 64.336 30.1125Z" stroke="url(#paint4_linear_1_2362)" stroke-width="1.29949" stroke-miterlimit="20.48"/>
<path opacity="0.55" d="M62.2685 22.6775C62.8142 18.0394 51.1949 12.8562 36.316 11.1004C21.4372 9.34467 8.93312 11.6813 8.38744 16.3193C7.84177 20.9574 19.4611 26.1406 34.34 27.8964C49.2188 29.6521 61.7228 27.3155 62.2685 22.6775Z" stroke="url(#paint5_linear_1_2362)" stroke-width="1.29949" stroke-miterlimit="20.48"/>
<path opacity="0.55" d="M59.888 51.1635C60.441 46.463 48.6644 41.2099 33.5842 39.4303C18.504 37.6508 5.83073 40.0188 5.2777 44.7193C4.72468 49.4199 16.5013 54.673 31.5815 56.4525C46.6617 58.232 59.3349 55.864 59.888 51.1635Z" stroke="url(#paint6_linear_1_2362)" stroke-width="1.29949" stroke-miterlimit="20.48"/>
<path opacity="0.55" d="M64.4126 37.3158C65.0301 32.0674 51.8944 26.2036 35.0733 24.2186C18.2522 22.2337 4.11541 24.8793 3.49793 30.1277C2.88045 35.3761 16.0161 41.2398 32.8372 43.2248C49.6583 45.2097 63.7951 42.5642 64.4126 37.3158Z" stroke="url(#paint7_linear_1_2362)" stroke-width="1.29949" stroke-miterlimit="20.48"/>
<path opacity="0.55" d="M54.4002 35.7848C55.923 17.6985 47.9976 2.26301 36.6982 1.30877C25.3988 0.35454 15.0043 14.2429 13.4815 32.3293C11.9586 50.4156 19.8841 65.8511 31.1835 66.8053C42.4829 67.7596 52.8774 53.8712 54.4002 35.7848Z" stroke="url(#paint8_linear_1_2362)" stroke-width="1.29949" stroke-miterlimit="20.48"/>
<path opacity="0.55" d="M41.0103 34.7281C42.7344 16.6635 40.9583 1.71538 37.0432 1.3406C33.1281 0.965815 28.5566 15.3063 26.8325 33.3709C25.1084 51.4355 26.8845 66.3836 30.7996 66.7584C34.7147 67.1332 39.2862 52.7927 41.0103 34.7281Z" stroke="url(#paint9_linear_1_2362)" stroke-width="1.29949" stroke-miterlimit="20.48"/>
<path d="M25.1744 1.77217C26.8227 1.31125 28.5149 1.02553 30.223 0.919725C30.223 0.919725 5.35718 4.12451 3.99596 33.9306H1.48145C3.54114 10.7195 17.4879 3.82518 25.1744 1.77217Z" fill="url(#paint10_linear_1_2362)"/>
<path d="M55.7547 30.4265C55.7547 30.4265 38.8288 30.1825 38.5365 32.473C38.5365 32.473 37.6723 34.3503 38.4682 35.3101C38.2668 35.2906 38.0621 35.2809 37.851 35.2776L31.2041 35.1182L31.5289 35.8242C19.4307 37.5844 5.98742 36.527 5.98742 36.527L5.66255 35.4696C5.11196 34.9392 4.47034 34.5126 3.76853 34.2104C3.39641 34.04 3.00626 33.9123 2.60549 33.8298H2.586C2.22341 33.7487 1.85294 33.7083 1.48143 33.7094L1.39696 33.8493C1.35473 33.9274 1.293 34.0315 1.22478 34.1746C0.493814 35.5509 -1.29623 39.6602 2.31636 41.1178C2.31636 41.1178 5.34092 58.0365 20.4638 64.7356C20.4638 64.7356 36.597 74.607 44.6636 54.1614C44.6636 54.1614 48.026 42.1752 55.7547 39.003C55.7547 38.9965 65.8388 32.0793 55.7547 30.4265ZM30.184 59.7088C24.7781 66.3201 20.1291 62.9624 20.1291 62.9624C8.36549 58.03 4.66844 40.7566 4.66844 40.7566C4.66844 40.7566 28.3517 43.9907 30.184 46.265C35.1968 52.4826 30.184 59.7088 30.184 59.7088ZM42.6493 36.1756C42.1569 36.0034 41.656 35.8568 41.1484 35.7364C41.6991 35.6182 42.2416 35.4649 42.7728 35.2776C42.7728 35.2776 50.3651 36.527 55.0693 35.8242C55.0822 35.8242 50.4236 36.758 42.6493 36.1756Z" fill="#13236B"/>
<path d="M30.184 33.3059C30.184 33.3059 26.8508 25.2468 35.252 23.838C35.252 23.838 41.3044 22.0745 41.3044 30.1825C41.3044 30.1825 36.597 30.5371 37.2695 34.7668L-7.56299 34.0185L30.184 33.3059Z" fill="#13236B"/>
<path d="M45.2451 51.6822C45.2938 51.5423 45.3685 51.3308 45.4693 51.0803C45.7584 50.3515 46.0021 49.909 46.3464 49.2192L47.0157 47.9568L47.6881 46.753L48.3606 45.6924" stroke="white" stroke-width="0.217665" stroke-miterlimit="10"/>
<path d="M45.0405 52.241C45.1023 52.072 45.1737 51.8836 45.2452 51.6822" stroke="white" stroke-width="0.217665" stroke-miterlimit="10"/>
<path d="M32.1689 66.6162C35.1545 65.9459 41.4538 63.3073 44.7935 52.9186L45.0404 52.2418" stroke="white" stroke-width="0.217665" stroke-miterlimit="10"/>
<path d="M25.1191 63.8539C25.1191 63.8539 29.8655 62.2011 31.8375 57.4053C32.0942 56.7806 33.5431 53.1561 32.2241 49.2713C31.8554 47.9562 31.1234 46.772 30.1124 45.855" stroke="white" stroke-width="0.217665" stroke-miterlimit="10"/>
<path d="M28.9983 65.1814C30.3988 64.6601 31.713 63.9307 32.8968 63.0177C34.5666 61.7728 35.9054 60.136 36.7952 58.2512C38.0143 55.7797 38.8888 53.1523 39.3942 50.4426C39.665 48.8747 39.8041 47.2868 39.8101 45.6956" stroke="white" stroke-width="0.432081" stroke-miterlimit="20.48" stroke-linecap="square" stroke-dasharray="3.03 2.16"/>
</g>
<defs>
<linearGradient id="paint0_linear_1_2362" x1="65.1325" y1="35.2038" x2="2.55368" y2="34.2509" gradientUnits="userSpaceOnUse">
<stop stop-color="#CCE0F4"/>
<stop offset="0.06" stop-color="#C3DCF2"/>
<stop offset="0.17" stop-color="#A9D2EE"/>
<stop offset="0.31" stop-color="#80C2E7"/>
<stop offset="0.46" stop-color="#47ACDE"/>
<stop offset="0.57" stop-color="#1E9CD7"/>
<stop offset="0.87" stop-color="#0075BE"/>
<stop offset="0.99" stop-color="#005B97"/>
</linearGradient>
<linearGradient id="paint1_linear_1_2362" x1="59.1529" y1="12.2044" x2="13.8621" y2="11.4076" gradientUnits="userSpaceOnUse">
<stop stop-color="#CCE0F4"/>
<stop offset="0.06" stop-color="#C3DCF2"/>
<stop offset="0.17" stop-color="#A9D2EE"/>
<stop offset="0.31" stop-color="#80C2E7"/>
<stop offset="0.46" stop-color="#47ACDE"/>
<stop offset="0.57" stop-color="#1E9CD7"/>
<stop offset="0.87" stop-color="#0075BE"/>
<stop offset="0.99" stop-color="#005B97"/>
</linearGradient>
<linearGradient id="paint2_linear_1_2362" x1="55.4993" y1="54.9372" x2="9.51679" y2="54.1282" gradientUnits="userSpaceOnUse">
<stop stop-color="#CCE0F4"/>
<stop offset="0.06" stop-color="#C3DCF2"/>
<stop offset="0.17" stop-color="#A9D2EE"/>
<stop offset="0.31" stop-color="#80C2E7"/>
<stop offset="0.46" stop-color="#47ACDE"/>
<stop offset="0.57" stop-color="#1E9CD7"/>
<stop offset="0.87" stop-color="#0075BE"/>
<stop offset="0.99" stop-color="#005B97"/>
</linearGradient>
<linearGradient id="paint3_linear_1_2362" x1="64.101" y1="40.971" x2="3.59804" y2="39.9065" gradientUnits="userSpaceOnUse">
<stop stop-color="#CCE0F4"/>
<stop offset="0.06" stop-color="#C3DCF2"/>
<stop offset="0.17" stop-color="#A9D2EE"/>
<stop offset="0.31" stop-color="#80C2E7"/>
<stop offset="0.46" stop-color="#47ACDE"/>
<stop offset="0.57" stop-color="#1E9CD7"/>
<stop offset="0.87" stop-color="#0075BE"/>
<stop offset="0.99" stop-color="#005B97"/>
</linearGradient>
<linearGradient id="paint4_linear_1_2362" x1="65.4117" y1="26.6942" x2="4.97608" y2="25.6309" gradientUnits="userSpaceOnUse">
<stop stop-color="#CCE0F4"/>
<stop offset="0.06" stop-color="#C3DCF2"/>
<stop offset="0.17" stop-color="#A9D2EE"/>
<stop offset="0.31" stop-color="#80C2E7"/>
<stop offset="0.46" stop-color="#47ACDE"/>
<stop offset="0.57" stop-color="#1E9CD7"/>
<stop offset="0.87" stop-color="#0075BE"/>
<stop offset="0.99" stop-color="#005B97"/>
</linearGradient>
<linearGradient id="paint5_linear_1_2362" x1="63.3366" y1="19.4395" x2="8.39512" y2="18.4729" gradientUnits="userSpaceOnUse">
<stop stop-color="#CCE0F4"/>
<stop offset="0.06" stop-color="#C3DCF2"/>
<stop offset="0.17" stop-color="#A9D2EE"/>
<stop offset="0.31" stop-color="#80C2E7"/>
<stop offset="0.46" stop-color="#47ACDE"/>
<stop offset="0.57" stop-color="#1E9CD7"/>
<stop offset="0.87" stop-color="#0075BE"/>
<stop offset="0.99" stop-color="#005B97"/>
</linearGradient>
<linearGradient id="paint6_linear_1_2362" x1="61.0082" y1="48.0094" x2="5.34435" y2="47.0301" gradientUnits="userSpaceOnUse">
<stop stop-color="#CCE0F4"/>
<stop offset="0.06" stop-color="#C3DCF2"/>
<stop offset="0.17" stop-color="#A9D2EE"/>
<stop offset="0.31" stop-color="#80C2E7"/>
<stop offset="0.46" stop-color="#47ACDE"/>
<stop offset="0.57" stop-color="#1E9CD7"/>
<stop offset="0.87" stop-color="#0075BE"/>
<stop offset="0.99" stop-color="#005B97"/>
</linearGradient>
<linearGradient id="paint7_linear_1_2362" x1="65.4952" y1="33.8661" x2="3.54445" y2="32.7762" gradientUnits="userSpaceOnUse">
<stop stop-color="#CCE0F4"/>
<stop offset="0.06" stop-color="#C3DCF2"/>
<stop offset="0.17" stop-color="#A9D2EE"/>
<stop offset="0.31" stop-color="#80C2E7"/>
<stop offset="0.46" stop-color="#47ACDE"/>
<stop offset="0.57" stop-color="#1E9CD7"/>
<stop offset="0.87" stop-color="#0075BE"/>
<stop offset="0.99" stop-color="#005B97"/>
</linearGradient>
<linearGradient id="paint8_linear_1_2362" x1="55.6851" y1="34.5486" x2="13.122" y2="33.5201" gradientUnits="userSpaceOnUse">
<stop stop-color="#CCE0F4"/>
<stop offset="0.06" stop-color="#C3DCF2"/>
<stop offset="0.17" stop-color="#A9D2EE"/>
<stop offset="0.31" stop-color="#80C2E7"/>
<stop offset="0.46" stop-color="#47ACDE"/>
<stop offset="0.57" stop-color="#1E9CD7"/>
<stop offset="0.87" stop-color="#0075BE"/>
<stop offset="0.99" stop-color="#005B97"/>
</linearGradient>
<linearGradient id="paint9_linear_1_2362" x1="40.7368" y1="33.5459" x2="24.3926" y2="33.2935" gradientUnits="userSpaceOnUse">
<stop stop-color="#CCE0F4"/>
<stop offset="0.06" stop-color="#C3DCF2"/>
<stop offset="0.17" stop-color="#A9D2EE"/>
<stop offset="0.31" stop-color="#80C2E7"/>
<stop offset="0.46" stop-color="#47ACDE"/>
<stop offset="0.57" stop-color="#1E9CD7"/>
<stop offset="0.87" stop-color="#0075BE"/>
<stop offset="0.99" stop-color="#005B97"/>
</linearGradient>
<linearGradient id="paint10_linear_1_2362" x1="1.48145" y1="17.4317" x2="30.2132" y2="17.4317" gradientUnits="userSpaceOnUse">
<stop offset="0.47" stop-color="#13236B"/>
<stop offset="1" stop-color="#B9D9ED"/>
</linearGradient>
<clipPath id="clip0_1_2362">
<rect width="64" height="68" fill="white" transform="translate(0 0.5)"/>
</clipPath>
</defs>
</svg>
