<svg width="65" height="68" viewBox="0 0 65 68" fill="none" xmlns="http://www.w3.org/2000/svg">
<g clip-path="url(#clip0_10_18)">
<path opacity="0.55" d="M35.897 66.4203C52.8965 65.6591 66.0202 50.3253 65.2098 32.1713C64.3993 14.0174 49.9616 -0.082303 32.9621 0.678882C15.9627 1.44007 2.83889 16.7738 3.64935 34.9278C4.4598 53.0818 18.8976 67.1815 35.897 66.4203Z" stroke="url(#paint0_linear_10_18)" stroke-width="1.29949" stroke-miterlimit="20.48"/>
<path opacity="0.55" d="M58.5828 14.606C59.0296 10.8084 49.4969 6.5623 37.2909 5.12195C25.0849 3.6816 14.8278 5.59248 14.381 9.39003C13.9342 13.1876 23.4669 17.4337 35.6729 18.8741C47.8789 20.3144 58.1361 18.4035 58.5828 14.606Z" stroke="url(#paint1_linear_10_18)" stroke-width="1.29949" stroke-miterlimit="20.48"/>
<path opacity="0.55" d="M54.8478 57.2005C55.3016 53.344 45.6199 49.0319 33.2232 47.569C20.8266 46.1062 10.4093 48.0466 9.95556 51.903C9.50184 55.7595 19.1835 60.0716 31.5802 61.5345C43.9768 62.9973 54.3941 61.0569 54.8478 57.2005Z" stroke="url(#paint2_linear_10_18)" stroke-width="1.29949" stroke-miterlimit="20.48"/>
<path opacity="0.55" d="M63.5021 43.8398C64.1046 38.7181 51.2819 32.9954 34.8617 31.0578C18.4415 29.1201 4.64187 31.7013 4.0393 36.823C3.43672 41.9447 16.2594 47.6674 32.6796 49.6051C49.0998 51.5427 62.8995 48.9615 63.5021 43.8398Z" stroke="url(#paint3_linear_10_18)" stroke-width="1.29949" stroke-miterlimit="20.48"/>
<path opacity="0.55" d="M64.836 29.6126C65.4379 24.4963 52.6306 18.7798 36.23 16.8445C19.8294 14.9091 6.0461 17.4879 5.44416 22.6042C4.84222 27.7206 17.6496 33.4371 34.0501 35.3724C50.4507 37.3077 64.234 34.729 64.836 29.6126Z" stroke="url(#paint4_linear_10_18)" stroke-width="1.29949" stroke-miterlimit="20.48"/>
<path opacity="0.55" d="M62.7685 22.1774C63.3142 17.5394 51.6949 12.3561 36.816 10.6004C21.9372 8.84464 9.43312 11.1812 8.88744 15.8193C8.34177 20.4574 19.9611 25.6406 34.84 27.3964C49.7188 29.1521 62.2228 26.8155 62.7685 22.1774Z" stroke="url(#paint5_linear_10_18)" stroke-width="1.29949" stroke-miterlimit="20.48"/>
<path opacity="0.55" d="M60.388 50.6636C60.941 45.963 49.1644 40.7099 34.0842 38.9304C19.004 37.1509 6.33073 39.5189 5.7777 44.2194C5.22468 48.9199 17.0013 54.173 32.0815 55.9526C47.1617 57.7321 59.8349 55.3641 60.388 50.6636Z" stroke="url(#paint6_linear_10_18)" stroke-width="1.29949" stroke-miterlimit="20.48"/>
<path opacity="0.55" d="M64.9126 36.8159C65.5301 31.5675 52.3944 25.7037 35.5733 23.7188C18.7522 21.7338 4.61541 24.3794 3.99793 29.6278C3.38045 34.8762 16.5161 40.74 33.3372 42.7249C50.1583 44.7099 64.2951 42.0643 64.9126 36.8159Z" stroke="url(#paint7_linear_10_18)" stroke-width="1.29949" stroke-miterlimit="20.48"/>
<path opacity="0.55" d="M54.9002 35.2849C56.423 17.1986 48.4976 1.76311 37.1982 0.808873C25.8988 -0.145361 15.5043 13.743 13.9815 31.8294C12.4586 49.9157 20.3841 65.3512 31.6835 66.3054C42.9829 67.2597 53.3774 53.3713 54.9002 35.2849Z" stroke="url(#paint8_linear_10_18)" stroke-width="1.29949" stroke-miterlimit="20.48"/>
<path opacity="0.55" d="M41.5103 34.2279C43.2344 16.1632 41.4583 1.21514 37.5432 0.840361C33.6281 0.465579 29.0566 14.806 27.3325 32.8707C25.6084 50.9353 27.3845 65.8834 31.2996 66.2582C35.2147 66.633 39.7862 52.2925 41.5103 34.2279Z" stroke="url(#paint9_linear_10_18)" stroke-width="1.29949" stroke-miterlimit="20.48"/>
<path d="M25.6744 1.27212C27.3227 0.811201 29.0149 0.525477 30.723 0.419678C30.723 0.419678 5.85718 3.62446 4.49596 33.4306H1.98145C4.04114 10.2195 17.9879 3.32513 25.6744 1.27212Z" fill="url(#paint10_linear_10_18)"/>
<path d="M56.2547 29.9265C56.2547 29.9265 39.3288 29.6825 39.0365 31.973C39.0365 31.973 38.1723 33.8503 38.9682 34.8101C38.7668 34.7906 38.5621 34.7808 38.351 34.7776L31.7041 34.6181L32.0289 35.3242C19.9307 37.0844 6.48742 36.027 6.48742 36.027L6.16255 34.9695C5.61196 34.4392 4.97034 34.0126 4.26853 33.7104C3.89641 33.54 3.50626 33.4123 3.10549 33.3297H3.086C2.72341 33.2487 2.35294 33.2083 1.98143 33.2093L1.89696 33.3492C1.85473 33.4273 1.793 33.5314 1.72478 33.6746C0.993814 35.0509 -0.796232 39.1602 2.81636 40.6178C2.81636 40.6178 5.84092 57.5364 20.9638 64.2356C20.9638 64.2356 37.097 74.107 45.1636 53.6614C45.1636 53.6614 48.526 41.6752 56.2547 38.5029C56.2547 38.4964 66.3388 31.5793 56.2547 29.9265ZM30.684 59.2088C25.2781 65.8201 20.6291 62.4624 20.6291 62.4624C8.86549 57.5299 5.16844 40.2566 5.16844 40.2566C5.16844 40.2566 28.8517 43.4907 30.684 45.7649C35.6968 51.9825 30.684 59.2088 30.684 59.2088ZM43.1493 35.6756C42.6569 35.5033 42.156 35.3567 41.6484 35.2363C42.1991 35.1181 42.7416 34.9649 43.2728 34.7776C43.2728 34.7776 50.8651 36.027 55.5693 35.3242C55.5822 35.3242 50.9236 36.258 43.1493 35.6756Z" fill="white"/>
<path d="M30.684 32.806C30.684 32.806 27.3508 24.7469 35.752 23.3381C35.752 23.3381 41.8044 21.5746 41.8044 29.6826C41.8044 29.6826 37.097 30.0372 37.7695 34.2669L-7.06299 33.5185L30.684 32.806Z" fill="white"/>
<path d="M45.7451 51.1822C45.7938 51.0423 45.8685 50.8309 45.9693 50.5803C46.2584 49.8515 46.5021 49.409 46.8464 48.7193L47.5157 47.4569L48.1881 46.2531L48.8606 45.1924" stroke="white" stroke-width="0.217665" stroke-miterlimit="10"/>
<path d="M45.5405 51.7409C45.6023 51.572 45.6737 51.3836 45.7452 51.1821" stroke="white" stroke-width="0.217665" stroke-miterlimit="10"/>
<path d="M32.6689 66.1161C35.6545 65.4458 41.9538 62.8072 45.2935 52.4184L45.5404 51.7417" stroke="white" stroke-width="0.217665" stroke-miterlimit="10"/>
<path d="M25.6191 63.3538C25.6191 63.3538 30.3655 61.701 32.3375 56.9052C32.5942 56.2805 34.0431 52.656 32.7241 48.7712C32.3554 47.4561 31.6234 46.272 30.6124 45.355" stroke="white" stroke-width="0.217665" stroke-miterlimit="10"/>
<path d="M29.4983 64.6815C30.8988 64.1603 32.213 63.4309 33.3968 62.5179C35.0666 61.273 36.4054 59.6362 37.2952 57.7514C38.5143 55.2799 39.3888 52.6525 39.8942 49.9428C40.165 48.3749 40.3041 46.787 40.3101 45.1958" stroke="white" stroke-width="0.432081" stroke-miterlimit="20.48" stroke-linecap="square" stroke-dasharray="3.03 2.16"/>
</g>
<defs>
<linearGradient id="paint0_linear_10_18" x1="65.6325" y1="34.7037" x2="3.05368" y2="33.7509" gradientUnits="userSpaceOnUse">
<stop stop-color="#CCE0F4"/>
<stop offset="0.06" stop-color="#C3DCF2"/>
<stop offset="0.17" stop-color="#A9D2EE"/>
<stop offset="0.31" stop-color="#80C2E7"/>
<stop offset="0.46" stop-color="#47ACDE"/>
<stop offset="0.57" stop-color="#1E9CD7"/>
<stop offset="0.87" stop-color="#0075BE"/>
<stop offset="0.99" stop-color="#005B97"/>
</linearGradient>
<linearGradient id="paint1_linear_10_18" x1="59.6529" y1="11.7043" x2="14.3621" y2="10.9075" gradientUnits="userSpaceOnUse">
<stop stop-color="#CCE0F4"/>
<stop offset="0.06" stop-color="#C3DCF2"/>
<stop offset="0.17" stop-color="#A9D2EE"/>
<stop offset="0.31" stop-color="#80C2E7"/>
<stop offset="0.46" stop-color="#47ACDE"/>
<stop offset="0.57" stop-color="#1E9CD7"/>
<stop offset="0.87" stop-color="#0075BE"/>
<stop offset="0.99" stop-color="#005B97"/>
</linearGradient>
<linearGradient id="paint2_linear_10_18" x1="55.9993" y1="54.4373" x2="10.0168" y2="53.6283" gradientUnits="userSpaceOnUse">
<stop stop-color="#CCE0F4"/>
<stop offset="0.06" stop-color="#C3DCF2"/>
<stop offset="0.17" stop-color="#A9D2EE"/>
<stop offset="0.31" stop-color="#80C2E7"/>
<stop offset="0.46" stop-color="#47ACDE"/>
<stop offset="0.57" stop-color="#1E9CD7"/>
<stop offset="0.87" stop-color="#0075BE"/>
<stop offset="0.99" stop-color="#005B97"/>
</linearGradient>
<linearGradient id="paint3_linear_10_18" x1="64.601" y1="40.4708" x2="4.09804" y2="39.4064" gradientUnits="userSpaceOnUse">
<stop stop-color="#CCE0F4"/>
<stop offset="0.06" stop-color="#C3DCF2"/>
<stop offset="0.17" stop-color="#A9D2EE"/>
<stop offset="0.31" stop-color="#80C2E7"/>
<stop offset="0.46" stop-color="#47ACDE"/>
<stop offset="0.57" stop-color="#1E9CD7"/>
<stop offset="0.87" stop-color="#0075BE"/>
<stop offset="0.99" stop-color="#005B97"/>
</linearGradient>
<linearGradient id="paint4_linear_10_18" x1="65.9117" y1="26.1943" x2="5.47608" y2="25.1311" gradientUnits="userSpaceOnUse">
<stop stop-color="#CCE0F4"/>
<stop offset="0.06" stop-color="#C3DCF2"/>
<stop offset="0.17" stop-color="#A9D2EE"/>
<stop offset="0.31" stop-color="#80C2E7"/>
<stop offset="0.46" stop-color="#47ACDE"/>
<stop offset="0.57" stop-color="#1E9CD7"/>
<stop offset="0.87" stop-color="#0075BE"/>
<stop offset="0.99" stop-color="#005B97"/>
</linearGradient>
<linearGradient id="paint5_linear_10_18" x1="63.8366" y1="18.9395" x2="8.89512" y2="17.9729" gradientUnits="userSpaceOnUse">
<stop stop-color="#CCE0F4"/>
<stop offset="0.06" stop-color="#C3DCF2"/>
<stop offset="0.17" stop-color="#A9D2EE"/>
<stop offset="0.31" stop-color="#80C2E7"/>
<stop offset="0.46" stop-color="#47ACDE"/>
<stop offset="0.57" stop-color="#1E9CD7"/>
<stop offset="0.87" stop-color="#0075BE"/>
<stop offset="0.99" stop-color="#005B97"/>
</linearGradient>
<linearGradient id="paint6_linear_10_18" x1="61.5082" y1="47.5095" x2="5.84435" y2="46.5302" gradientUnits="userSpaceOnUse">
<stop stop-color="#CCE0F4"/>
<stop offset="0.06" stop-color="#C3DCF2"/>
<stop offset="0.17" stop-color="#A9D2EE"/>
<stop offset="0.31" stop-color="#80C2E7"/>
<stop offset="0.46" stop-color="#47ACDE"/>
<stop offset="0.57" stop-color="#1E9CD7"/>
<stop offset="0.87" stop-color="#0075BE"/>
<stop offset="0.99" stop-color="#005B97"/>
</linearGradient>
<linearGradient id="paint7_linear_10_18" x1="65.9952" y1="33.3662" x2="4.04445" y2="32.2763" gradientUnits="userSpaceOnUse">
<stop stop-color="#CCE0F4"/>
<stop offset="0.06" stop-color="#C3DCF2"/>
<stop offset="0.17" stop-color="#A9D2EE"/>
<stop offset="0.31" stop-color="#80C2E7"/>
<stop offset="0.46" stop-color="#47ACDE"/>
<stop offset="0.57" stop-color="#1E9CD7"/>
<stop offset="0.87" stop-color="#0075BE"/>
<stop offset="0.99" stop-color="#005B97"/>
</linearGradient>
<linearGradient id="paint8_linear_10_18" x1="56.1851" y1="34.0487" x2="13.622" y2="33.0202" gradientUnits="userSpaceOnUse">
<stop stop-color="#CCE0F4"/>
<stop offset="0.06" stop-color="#C3DCF2"/>
<stop offset="0.17" stop-color="#A9D2EE"/>
<stop offset="0.31" stop-color="#80C2E7"/>
<stop offset="0.46" stop-color="#47ACDE"/>
<stop offset="0.57" stop-color="#1E9CD7"/>
<stop offset="0.87" stop-color="#0075BE"/>
<stop offset="0.99" stop-color="#005B97"/>
</linearGradient>
<linearGradient id="paint9_linear_10_18" x1="41.2368" y1="33.0457" x2="24.8926" y2="32.7933" gradientUnits="userSpaceOnUse">
<stop stop-color="#CCE0F4"/>
<stop offset="0.06" stop-color="#C3DCF2"/>
<stop offset="0.17" stop-color="#A9D2EE"/>
<stop offset="0.31" stop-color="#80C2E7"/>
<stop offset="0.46" stop-color="#47ACDE"/>
<stop offset="0.57" stop-color="#1E9CD7"/>
<stop offset="0.87" stop-color="#0075BE"/>
<stop offset="0.99" stop-color="#005B97"/>
</linearGradient>
<linearGradient id="paint10_linear_10_18" x1="1.98145" y1="16.9316" x2="30.7132" y2="16.9316" gradientUnits="userSpaceOnUse">
<stop offset="0.47" stop-color="#13236B"/>
<stop offset="1" stop-color="#B9D9ED"/>
</linearGradient>
<clipPath id="clip0_10_18">
<rect width="64" height="68" fill="white" transform="translate(0.5)"/>
</clipPath>
</defs>
</svg>
