<svg width="23" height="22" viewBox="0 0 23 22" fill="none" xmlns="http://www.w3.org/2000/svg">
<path d="M20.8827 5.69873C21.3756 6.54553 21.7091 7.40791 21.9344 8.30649C22.2859 9.70557 22.3727 11.1258 22.1642 12.5549C21.926 14.1906 21.3452 15.7016 20.418 17.0795C19.1792 18.9201 17.5271 20.2763 15.4744 21.1415C14.0171 21.7556 12.4882 22.0367 10.8997 21.9955C8.15975 21.9237 5.75948 20.9945 3.71523 19.1951C2.28949 17.9408 1.23102 16.4259 0.639548 14.626C-0.632409 10.7589 -0.0127666 7.20081 2.55593 4.01739C4.13489 2.06102 6.21408 0.836196 8.67349 0.273892C10.2153 -0.0785218 11.774 -0.0863161 13.3349 0.224343C15.2811 0.611831 16.9891 1.45863 18.4875 2.73689C18.6745 2.89612 18.7128 2.98464 18.5005 3.17449C18.0346 3.58982 17.6003 4.03966 17.1632 4.4856C17.0381 4.6131 16.9604 4.62535 16.8201 4.50231C15.7684 3.58202 14.5466 2.97128 13.1884 2.64281C12.1615 2.3945 11.1177 2.33103 10.0615 2.47579C7.34577 2.84936 5.24574 4.18274 3.76874 6.45088C2.6624 8.14949 2.22809 10.0379 2.50918 12.0299C2.98236 15.3887 4.85593 17.7359 8.024 19.0259C9.58493 19.6617 11.2275 19.7858 12.8837 19.4178C16.1391 18.6946 18.314 16.7422 19.4136 13.65C19.9532 12.1329 19.9803 10.5635 19.5972 8.99183C19.5116 8.63941 19.4057 8.29591 19.2767 7.95853C19.2361 7.85219 19.2339 7.77703 19.3105 7.68127C19.8282 7.03657 20.3385 6.38575 20.8821 5.69818L20.8827 5.69873Z" fill="#D5FF6A"/>
<path d="M10.9688 17.0783C10.2906 17.0666 9.82756 16.7165 9.5121 16.1519C8.8688 15.0012 8.18438 13.8765 7.42222 12.7982C6.70738 11.786 5.93113 10.8267 5.02815 9.97104C4.67495 9.63589 4.68058 9.38814 5.06532 9.08249C5.57005 8.68108 6.18519 8.53967 6.79525 8.39548C7.15972 8.30918 7.52868 8.24182 7.90385 8.21287C8.2255 8.18781 8.49702 8.25184 8.7398 8.49903C9.32452 9.0953 9.79094 9.77507 10.2393 10.4699C10.5565 10.9609 10.8759 11.4514 11.1733 11.9536C11.3063 12.1779 11.3688 12.1401 11.5124 11.9614C13.5477 9.43156 15.6832 6.98805 17.9674 4.67425C18.7983 3.83246 19.65 3.01184 20.6206 2.32204C21.1603 1.939 21.7619 1.78089 22.4193 1.80817C22.6547 1.81819 22.8772 1.87776 22.9724 2.11215C23.0642 2.33818 22.9093 2.49741 22.7567 2.64049C20.9868 4.29734 19.5351 6.21864 18.0778 8.13604C17.0087 9.54291 16.0014 10.991 15.0652 12.4875C14.4062 13.5408 13.8423 14.6487 13.1528 15.6854C12.7145 16.344 12.2064 16.8751 11.3891 17.0366C11.2494 17.0644 11.1113 17.075 10.9688 17.0789V17.0783Z" fill="#D5FF6A"/>
</svg>
